<svg width="40" height="40" viewBox="0 0 40 40" fill="none" xmlns="http://www.w3.org/2000/svg">
<g id="Frame 9">
<g id="&#240;&#159;&#166;&#134; icon &#34;shopping cart&#34;">
<path id="Vector" d="M14.9351 38.0001C15.828 38.0001 16.5519 37.2539 16.5519 36.3334C16.5519 35.4129 15.828 34.6667 14.9351 34.6667C14.0421 34.6667 13.3182 35.4129 13.3182 36.3334C13.3182 37.2539 14.0421 38.0001 14.9351 38.0001Z" stroke="#FFAF34" stroke-width="2" stroke-linecap="round" stroke-linejoin="round"/>
<path id="Vector_2" d="M32.7208 38.0001C33.6137 38.0001 34.3376 37.2539 34.3376 36.3334C34.3376 35.4129 33.6137 34.6667 32.7208 34.6667C31.8278 34.6667 31.1039 35.4129 31.1039 36.3334C31.1039 37.2539 31.8278 38.0001 32.7208 38.0001Z" stroke="#FFAF34" stroke-width="2" stroke-linecap="round" stroke-linejoin="round"/>
<path id="Vector_3" d="M2 3H8.46753L12.8008 25.3167C12.9486 26.084 13.3536 26.7733 13.9448 27.2638C14.536 27.7544 15.2757 28.015 16.0345 28H31.7506C32.5095 28.015 33.2492 27.7544 33.8404 27.2638C34.4316 26.7733 34.8366 26.084 34.9844 25.3167L37.5714 11.3333H10.0844" stroke="#FFAF34" stroke-width="2" stroke-linecap="round" stroke-linejoin="round"/>
</g>
</g>
</svg>
