<svg width="9" height="17" viewBox="0 0 9 17" fill="none" xmlns="http://www.w3.org/2000/svg">
<path id="Vector" d="M1.27717 0.00219154C0.979279 0.00163841 0.69059 0.100233 0.461216 0.280859C0.332119 0.382572 0.225406 0.50749 0.147187 0.648457C0.0689678 0.789421 0.0207803 0.943665 0.00538454 1.10236C-0.0100113 1.26105 0.00768725 1.42107 0.057466 1.57325C0.107245 1.72543 0.188125 1.86678 0.295476 1.98921L6.00713 8.48338L0.499465 14.9897C0.393562 15.1136 0.314476 15.2562 0.266753 15.4093C0.219031 15.5623 0.203612 15.7229 0.221384 15.8816C0.239155 16.0404 0.289765 16.1942 0.370307 16.3343C0.450849 16.4744 0.559734 16.598 0.690703 16.698C0.822614 16.8083 0.977091 16.8915 1.14444 16.9424C1.31179 16.9933 1.4884 17.0107 1.66318 16.9937C1.83796 16.9766 2.00715 16.9254 2.16012 16.8432C2.31309 16.7611 2.44653 16.6498 2.55209 16.5163L8.70997 9.24669C8.89749 9.0299 9 8.75796 9 8.47733C9 8.19669 8.89749 7.92476 8.70997 7.70796L2.33535 0.438368C2.20746 0.291744 2.04499 0.175837 1.86113 0.100054C1.67728 0.0242691 1.47721 -0.00925827 1.27717 0.00219154Z" fill="#FFAF34"/>
</svg>
