<svg width="41" height="40" viewBox="0 0 41 40" fill="none" xmlns="http://www.w3.org/2000/svg">
<g id="&#240;&#159;&#166;&#134; icon &#34;facebook&#34;">
<path id="Vector" d="M40.2478 20.1239C40.2478 9.0067 31.2335 0 20.1239 0C9.0067 0 0 9.0067 0 20.1239C0 30.1657 7.35654 38.492 16.9795 40V25.9422H11.8693V20.1251H16.9795V15.6891C16.9795 10.6468 19.9792 7.86215 24.5776 7.86215C26.7799 7.86215 29.0853 8.25457 29.0853 8.25457V13.2063H26.5434C24.048 13.2063 23.2682 14.7596 23.2682 16.3507V20.1239H28.8489L27.9521 25.9409H23.2682V39.9987C32.8837 38.4907 40.2478 30.1644 40.2478 20.1226V20.1239Z" fill="black" fill-opacity="0.8"/>
</g>
</svg>
