<svg width="48" height="48" viewBox="0 0 48 48" fill="none" xmlns="http://www.w3.org/2000/svg">
<g id="&#240;&#159;&#166;&#134; icon &#34;beatsbydre&#34;">
<path id="Vector" d="M24.0197 0C21.5774 0.000175002 19.1495 0.373136 16.8197 1.106V14.398C18.9822 12.7761 21.629 11.9319 24.3312 12.002C27.0335 12.0722 29.6329 13.0527 31.7083 14.7847C33.7837 16.5166 35.2136 18.8985 35.7662 21.5446C36.3189 24.1906 35.962 26.9458 34.7533 29.3637C33.5446 31.7815 31.555 33.7205 29.1067 34.8664C26.6585 36.0123 23.895 36.298 21.2641 35.6773C18.6332 35.0566 16.289 33.5658 14.6111 31.4464C12.9333 29.327 12.0202 26.7031 12.0197 24V3.204C6.97434 6.11057 3.15769 10.7523 1.28089 16.2642C-0.595909 21.7762 -0.404848 27.7825 1.81847 33.164C4.0418 38.5456 8.14574 42.9353 13.3657 45.5153C18.5856 48.0954 24.5654 48.6897 30.1911 47.1877C35.8167 45.6856 40.7045 42.1896 43.9436 37.351C47.1828 32.5124 48.5524 26.6612 47.7973 20.8877C47.0422 15.1141 44.2139 9.81196 39.8394 5.9691C35.4648 2.12625 29.8424 0.00478826 24.0197 0ZM24.3197 16.804C23.3496 16.7635 22.3813 16.9197 21.4731 17.2631C20.5649 17.6066 19.7356 18.1301 19.0349 18.8024C18.3343 19.4746 17.7769 20.2816 17.3962 21.1748C17.0155 22.068 16.8194 23.029 16.8197 24C16.8197 25.9095 17.5783 27.7409 18.9285 29.0912C20.2788 30.4414 22.1102 31.2 24.0197 31.2C25.9154 31.2186 27.742 30.4888 29.1029 29.1689C30.4638 27.8491 31.2493 26.0457 31.2888 24.1503C31.3283 22.2549 30.6187 20.4204 29.3139 19.0451C28.0091 17.6697 26.2146 16.8644 24.3197 16.804Z" fill="black"/>
</g>
</svg>
